#!OML:ASF E:\emotionWalksFemale\Project 1\Capture day 1\Session 1\Female1.ASF
:FULLY-SPECIFIED
:DEGREES
371
root 7.05121 15.0112 41.8099 180.14 -0.252218 -179.738
lowerback 10.8295 1.31933 -0.444926
upperback 3.42134 1.37192 -0.275469
thorax -2.50932 0.544636 -0.204053
lowerneck -2.07179 -3.49667 -6.22043
upperneck 5.34094 -4.92285 6.96314
head 2.46332 -2.45396 3.2485
rclavicle 6.06293e-015 -1.78906e-015
rhumerus -28.2323 12.3616 -91.9302
rradius 31.3053
rwrist 26.1676
rhand -14.288 -62.7072
rfingers 7.12502
rthumb 11.8514 92.3518
lclavicle 6.06293e-015 -1.78906e-015
lhumerus -32.5341 -14.3316 93.9609
lradius 35.8718
lwrist -13.6426
lhand -5.04038 -34.1384
lfingers 7.12502
lthumb 20.7546 -5.22828
rfemur -25.7683 6.64769 21.5423
rtibia 53.1142
rfoot -18.1107 -25.1841
rtoes 16.7249
lfemur -8.48021 -14.0789 -30.6491
ltibia 30.0753
lfoot -26.1831 17.3523
ltoes 3.14697
372
root 7.04855 15.0076 41.7885 180.094 -0.0393815 -179.665
lowerback 10.8875 1.38142 -0.331903
upperback 3.36795 1.46974 -0.276668
thorax -2.59347 0.594963 -0.283199
lowerneck -1.9034 -3.50512 -6.3887
upperneck 5.40474 -4.95799 7.13799
head 2.46916 -2.477 3.34273
rclavicle 4.74598e-015 -9.93923e-017
rhumerus -28.3387 12.5337 -92.0339
rradius 31.4661
rwrist 25.4339
rhand -16.8633 -61.3436
rfingers 7.12502
rthumb 9.36723 91.1155
lclavicle 4.74598e-015 -9.93923e-017
lhumerus -32.7096 -14.2876 94.0175
lradius 35.9564
lwrist -13.7683
lhand -5.25197 -33.8619
lfingers 7.12502
lthumb 20.5513 -4.92973
rfemur -25.968 6.77933 21.6247
rtibia 52.8371
rfoot -18.3365 -24.8783
rtoes 16.5495
lfemur -8.35327 -14.1523 -30.6699
ltibia 30.0541
lfoot -25.9744 18.0138
ltoes 0.685661
373
root 7.0453 15.0092 41.7636 180.201 0.139721 -179.648
lowerback 10.6418 1.0711 -0.35943
upperback 3.3496 1.6938 -0.318178
thorax -2.4755 0.978691 -0.345616
lowerneck -2.07521 -3.63252 -6.25687
upperneck 5.62429 -5.13797 7.07684
head 2.58125 -2.56328 3.28788
rclavicle -1.34925e-014 7.65321e-015
rhumerus -28.3527 12.2758 -91.9761
rradius 31.6178
rwrist 25.373
rhand -16.8782 -60.1428
rfingers 7.12502
rthumb 9.35282 270.085
lclavicle -1.34925e-014 7.65321e-015
lhumerus -32.694 -14.4861 94.1092
lradius 35.8245
lwrist -13.8597
lhand -6.43811 -34.1363
lfingers 7.12502
lthumb 19.4112 -5.08519
rfemur -26.3058 6.83588 21.6255
rtibia 52.4974
rfoot -18.3182 -24.624
rtoes 16.7945
lfemur -8.34871 -14.2128 -30.7035
ltibia 30.0205
lfoot -25.7437 18.608
ltoes -2.23414
374
root 7.05275 15.0105 41.7525 180.001 -0.118827 -179.68
lowerback 10.8654 1.4227 -0.505534
upperback 3.4221 1.5027 -0.232329
thorax -2.53109 0.608995 -0.142752
lowerneck -2.05851 -3.62761 -6.24084
upperneck 5.67915 -5.14159 7.11107
head 2.59762 -2.56554 3.297
rclavicle 2.65129e-014 -1.12313e-014
rhumerus -28.2938 12.0644 -91.8266
rradius 31.6452
rwrist 25.4996
rhand -16.2291 -60.0704
rfingers 7.12502
rthumb 9.97911 270.186
lclavicle 2.65129e-014 -1.12313e-014
lhumerus -32.5279 -14.5325 94.1472
lradius 35.6652
lwrist -13.9424
lhand -7.03689 -34.5993
lfingers 7.12502
lthumb 18.8353 -5.49119
rfemur -26.2396 6.77317 21.6315
rtibia 52.1089
rfoot -18.2668 -24.8327
rtoes 16.7169
lfemur -8.03008 -14.2539 -30.7754
ltibia 29.9622
lfoot -25.7572 18.4736
ltoes -2.28755
375
root 7.05599 15.011 41.7383 179.983 -0.227974 -179.697
lowerback 10.8273 1.39271 -0.636379
upperback 3.45615 1.44878 -0.18129
thorax -2.47958 0.580887 -0.00825365
lowerneck -1.95591 -3.56979 -6.44339
upperneck 5.62461 -5.0832 7.41907
head 2.57584 -2.53811 3.4472
rclavicle -1.20016e-014 1.88845e-015
rhumerus -28.3992 12.9575 -92.1069
rradius 31.8786
rwrist 24.0047
rhand -15.2461 -60.5844
rfingers 7.12502
rthumb 10.9273 90.2801
lclavicle -1.20016e-014 1.88845e-015
lhumerus -32.3546 -14.5516 94.1982
lradius 35.5182
lwrist -13.8125
lhand -6.79841 -34.7042
lfingers 7.12502
lthumb 19.0647 -5.61853
rfemur -26.4297 6.88955 21.5902
rtibia 51.7162
rfoot -18.1446 -25.1002
rtoes 16.2592
lfemur -7.91458 -14.3487 -30.8131
ltibia 29.915
lfoot -25.6324 18.5262
ltoes -1.91082
376
root 7.05738 15.0111 41.7238 180.078 -0.285522 -179.656
lowerback 10.79 1.36868 -0.643532
upperback 3.37737 1.42723 -0.148148
thorax -2.54185 0.574583 0.0325441
lowerneck -2.04533 -3.55133 -6.52657
upperneck 5.70387 -5.0773 7.66303
head 2.63185 -2.5323 3.54866
rclavicle -7.70291e-016 -1.59028e-015
rhumerus -28.61 13.7294 -92.4362
rradius 32.1348
rwrist 22.5265
rhand -13.0062 -60.7856
rfingers 7.12502
rthumb 13.0873 90.355
lclavicle -7.70291e-016 -1.59028e-015
lhumerus -32.3332 -14.5793 94.2747
lradius 35.4387
lwrist -13.5634
lhand -7.31002 -34.8211
lfingers 7.12502
lthumb 18.5726 -5.68769
rfemur -26.7531 6.92418 21.6025
rtibia 51.2958
rfoot -18.2686 -25.1682
rtoes 15.7445
lfemur -7.90989 -14.5374 -30.7824
ltibia 29.8454
lfoot -25.3169 18.8489
ltoes -3.28953
377
root 7.05749 15.012 41.7122 180.144 -0.382213 -179.578
lowerback 10.9407 1.3416 -0.623111
upperback 3.24208 1.40456 -0.105947
thorax -2.76533 0.568621 0.0631595
lowerneck -2.26348 -3.60788 -6.48081
upperneck 6.02216 -5.17906 7.74785
head 2.79053 -2.57892 3.56449
rclavicle 2.70844e-015 2.68359e-015
rhumerus -28.4607 12.85 -91.9859
rradius 31.8722
rwrist 23.8528
rhand -13.5316 -58.574
rfingers 7.12502
rthumb 12.5807 -88.1752
lclavicle 2.70844e-015 2.68359e-015
lhumerus -32.4587 -14.4412 94.306
lradius 35.5111
lwrist -13.7002
lhand -7.94416 -35.0098
lfingers 7.12502
lthumb 17.9626 -5.81934
rfemur -27.0298 6.78438 21.6649
rtibia 50.8151
rfoot -18.4582 -24.9416
rtoes 15.9515
lfemur -7.86043 -14.7926 -30.7196
ltibia 29.7269
lfoot -25.3301 18.9519
ltoes -2.99938
378
root 7.06291 15.0193 41.6843 180.178 -0.328198 -179.524
lowerback 10.7948 1.38156 -0.741426
upperback 3.21029 1.45496 -0.0503734
thorax -2.72324 0.59672 0.183024
lowerneck -2.28751 -3.61777 -6.53868
upperneck 6.17142 -5.21624 7.88925
head 2.85709 -2.59784 3.62477
rclavicle 2.65626e-014 -4.87022e-015
rhumerus -28.6396 13.5127 -92.2395
rradius 32.064
rwrist 22.4211
rhand -14.7778 -57.9052
rfingers 7.12502
rthumb 11.3791 -87.5764
lclavicle 2.65626e-014 -4.87022e-015
lhumerus -32.6103 -14.3856 94.3332
lradius 35.5716
lwrist -14.0824
lhand -8.51671 -35.3506
lfingers 7.12502
lthumb 17.4116 -6.11047
rfemur -27.1701 6.93652 21.7157
rtibia 50.2542
rfoot -18.6474 -24.8119
rtoes 16.3351
lfemur -7.67488 -14.9413 -30.6811
ltibia 29.5898
lfoot -25.6577 19.0593
ltoes -2.0241
379
root 7.06568 15.0294 41.6597 179.999 -0.913158 -179.508
lowerback 10.9266 1.17542 -0.719378
upperback 3.21439 1.18189 -0.011004
thorax -2.78903 0.46026 0.244858
lowerneck -1.9612 -3.57942 -6.62144
upperneck 6.08139 -5.18102 7.94057
head 2.76743 -2.58976 3.66401
rclavicle -3.37934e-015 -4.87022e-015
rhumerus -28.796 13.9697 -92.3477
rradius 32.1387
rwrist 21.6964
rhand -13.9963 -57.2758
rfingers 7.12502
rthumb 12.1327 -86.904
lclavicle -3.37934e-015 -4.87022e-015
lhumerus -32.7406 -14.3982 94.3542
lradius 35.7465
lwrist -13.8843
lhand -7.32883 -35.0493
lfingers 7.12502
lthumb 18.5545 -5.9142
rfemur -26.9997 6.70756 21.6994
rtibia 49.64
rfoot -18.8318 -25.0956
rtoes 15.7622
lfemur -7.25324 -15.2954 -30.7178
ltibia 29.4177
lfoot -25.6348 18.9932
ltoes -2.81778
380
root 7.06904 15.0286 41.645 179.919 -0.732001 -179.519
lowerback 11.0673 1.246 -0.814305
upperback 3.1858 1.26411 0.02161
thorax -2.89965 0.501193 0.318673
lowerneck -2.00474 -3.65044 -6.57708
upperneck 6.03798 -5.27291 7.94736
head 2.76722 -2.63288 3.65337
rclavicle -3.18055e-015 -1.98785e-016
rhumerus -28.7593 14.1157 -92.2156
rradius 32.0152
rwrist 21.6906
rhand -10.4749 -56.5562
rfingers 7.12502
rthumb 15.5262 -85.9528
lclavicle -3.18055e-015 -1.98785e-016
lhumerus -32.7716 -14.4422 94.395
lradius 35.7209
lwrist -14.0901
lhand -6.3019 -34.6946
lfingers 7.12502
lthumb 19.5421 -5.65675
rfemur -27.1581 6.98724 21.6404
rtibia 49.0445
rfoot -18.5184 -25.2059
rtoes 15.3121
lfemur -7.00539 -15.2359 -30.7763
ltibia 29.2333
lfoot -25.5208 19.1469
ltoes -2.95097
